<?xml version="1.0" encoding="UTF-8" standalone="no"?>
<!-- Created with Inkscape (http://www.inkscape.org/) -->

<svg
   xmlns:dc="http://purl.org/dc/elements/1.1/"
   xmlns:cc="http://creativecommons.org/ns#"
   xmlns:rdf="http://www.w3.org/1999/02/22-rdf-syntax-ns#"
   xmlns:svg="http://www.w3.org/2000/svg"
   xmlns="http://www.w3.org/2000/svg"
   xmlns:sodipodi="http://sodipodi.sourceforge.net/DTD/sodipodi-0.dtd"
   xmlns:inkscape="http://www.inkscape.org/namespaces/inkscape"
   width="744.09448819"
   height="1052.3622047"
   id="svg3739"
   version="1.1"
   inkscape:version="0.48.2 r9819"
   sodipodi:docname="implementation.eps">
  <defs
     id="defs3741">
    <clipPath
       clipPathUnits="userSpaceOnUse"
       id="clipPath32">
      <path
         inkscape:connector-curvature="0"
         d="m 5150.83,6150 -4140.83,0 0,-4400.83 4140.83,0 0,4400.83 z"
         id="path34" />
    </clipPath>
    <clipPath
       clipPathUnits="userSpaceOnUse"
       id="clipPath48">
      <path
         inkscape:connector-curvature="0"
         d="m 2990.83,2380 -300.83,0 0,-600.83 300.83,0 0,600.83 z"
         id="path50" />
    </clipPath>
    <clipPath
       clipPathUnits="userSpaceOnUse"
       id="clipPath62">
      <path
         inkscape:connector-curvature="0"
         d="m 5150.83,6150 -4140.83,0 0,-4400.83 4140.83,0 0,4400.83 z"
         id="path64" />
    </clipPath>
    <clipPath
       clipPathUnits="userSpaceOnUse"
       id="clipPath80">
      <path
         inkscape:connector-curvature="0"
         d="m 3840.83,2380 -300.83,0 0,-600.83 300.83,0 0,600.83 z"
         id="path82" />
    </clipPath>
    <clipPath
       clipPathUnits="userSpaceOnUse"
       id="clipPath94">
      <path
         inkscape:connector-curvature="0"
         d="m 5150.83,6150 -4140.83,0 0,-4400.83 4140.83,0 0,4400.83 z"
         id="path96" />
    </clipPath>
    <clipPath
       clipPathUnits="userSpaceOnUse"
       id="clipPath112">
      <path
         inkscape:connector-curvature="0"
         d="m 3440.83,5930 -300.83,0 0,-600.83 300.83,0 0,600.83 z"
         id="path114" />
    </clipPath>
    <clipPath
       clipPathUnits="userSpaceOnUse"
       id="clipPath128">
      <path
         inkscape:connector-curvature="0"
         d="m 5150.83,6150 -4140.83,0 0,-4400.83 4140.83,0 0,4400.83 z"
         id="path130" />
    </clipPath>
    <clipPath
       clipPathUnits="userSpaceOnUse"
       id="clipPath146">
      <path
         inkscape:connector-curvature="0"
         d="m 4690.83,2380 -300.83,0 0,-600.83 300.83,0 0,600.83 z"
         id="path148" />
    </clipPath>
    <clipPath
       clipPathUnits="userSpaceOnUse"
       id="clipPath160">
      <path
         inkscape:connector-curvature="0"
         d="m 5150.83,6150 -4140.83,0 0,-4400.83 4140.83,0 0,4400.83 z"
         id="path162" />
    </clipPath>
    <clipPath
       clipPathUnits="userSpaceOnUse"
       id="clipPath178">
      <path
         inkscape:connector-curvature="0"
         d="m 4740.83,5930 -300.83,0 0,-600.83 300.83,0 0,600.83 z"
         id="path180" />
    </clipPath>
    <clipPath
       clipPathUnits="userSpaceOnUse"
       id="clipPath194">
      <path
         inkscape:connector-curvature="0"
         d="m 5150.83,6150 -4140.83,0 0,-4400.83 4140.83,0 0,4400.83 z"
         id="path196" />
    </clipPath>
    <clipPath
       clipPathUnits="userSpaceOnUse"
       id="clipPath212">
      <path
         inkscape:connector-curvature="0"
         d="m 2140.83,5880 -300.83,0 0,-600.83 300.83,0 0,600.83 z"
         id="path214" />
    </clipPath>
    <clipPath
       clipPathUnits="userSpaceOnUse"
       id="clipPath228">
      <path
         inkscape:connector-curvature="0"
         d="m 5150.83,6150 -4140.83,0 0,-4400.83 4140.83,0 0,4400.83 z"
         id="path230" />
    </clipPath>
    <clipPath
       clipPathUnits="userSpaceOnUse"
       id="clipPath246">
      <path
         inkscape:connector-curvature="0"
         d="m 4970.83,4680 -3360.83,0 0,-1350.83 3360.83,0 0,1350.83 z"
         id="path248" />
    </clipPath>
    <clipPath
       clipPathUnits="userSpaceOnUse"
       id="clipPath276">
      <path
         inkscape:connector-curvature="0"
         d="m 5150.83,6150 -4140.83,0 0,-4400.83 4140.83,0 0,4400.83 z"
         id="path278" />
    </clipPath>
    <clipPath
       clipPathUnits="userSpaceOnUse"
       id="clipPath296">
      <path
         inkscape:connector-curvature="0"
         d="m 3440.83,5130 -300.83,0 0,-200.83 300.83,0 0,200.83 z"
         id="path298" />
    </clipPath>
    <clipPath
       clipPathUnits="userSpaceOnUse"
       id="clipPath310">
      <path
         inkscape:connector-curvature="0"
         d="m 5150.83,6150 -4140.83,0 0,-4400.83 4140.83,0 0,4400.83 z"
         id="path312" />
    </clipPath>
    <clipPath
       clipPathUnits="userSpaceOnUse"
       id="clipPath328">
      <path
         inkscape:connector-curvature="0"
         d="m 2790.83,5930 -300.83,0 0,-600.83 300.83,0 0,600.83 z"
         id="path330" />
    </clipPath>
    <clipPath
       clipPathUnits="userSpaceOnUse"
       id="clipPath344">
      <path
         inkscape:connector-curvature="0"
         d="m 5150.83,6150 -4140.83,0 0,-4400.83 4140.83,0 0,4400.83 z"
         id="path346" />
    </clipPath>
    <clipPath
       clipPathUnits="userSpaceOnUse"
       id="clipPath362">
      <path
         inkscape:connector-curvature="0"
         d="m 4090.83,5930 -300.83,0 0,-600.83 300.83,0 0,600.83 z"
         id="path364" />
    </clipPath>
    <clipPath
       clipPathUnits="userSpaceOnUse"
       id="clipPath378">
      <path
         inkscape:connector-curvature="0"
         d="m 5150.83,6150 -4140.83,0 0,-4400.83 4140.83,0 0,4400.83 z"
         id="path380" />
    </clipPath>
  </defs>
  <sodipodi:namedview
     id="base"
     pagecolor="#ffffff"
     bordercolor="#ffffff"
     borderopacity="0.0"
     inkscape:pageopacity="0.0"
     inkscape:pageshadow="0"
     inkscape:zoom="0.35"
     inkscape:cx="630.83525"
     inkscape:cy="291.42857"
     inkscape:document-units="px"
     inkscape:current-layer="layer1"
     showgrid="false"
     inkscape:window-width="469"
     inkscape:window-height="425"
     inkscape:window-x="150"
     inkscape:window-y="150"
     inkscape:window-maximized="0" />
  <metadata
     id="metadata3744">
    <rdf:RDF>
      <cc:Work
         rdf:about="">
        <dc:format>image/svg+xml</dc:format>
        <dc:type
           rdf:resource="http://purl.org/dc/dcmitype/StillImage" />
        <dc:title></dc:title>
      </cc:Work>
    </rdf:RDF>
  </metadata>
  <g
     inkscape:label="Layer 1"
     inkscape:groupmode="layer"
     id="layer1">
    <g
       transform="matrix(0,-0.125,-0.125,0,1169.2857,1055.8588)"
       id="g28">
      <g
         id="g30"
         clip-path="url(#clipPath32)">
        <path
           inkscape:connector-curvature="0"
           d="m 2690.83,1780 300,0 0,600 -300,0 0,-600 z"
           style="fill:#ffffff;fill-opacity:1;fill-rule:evenodd;stroke:none"
           id="path36" />
        <g
           id="g38"
           transform="scale(10,10)">
          <text
             transform="matrix(0,-1,-1,0,256.083,219)"
             id="text40">
            <tspan
               style="font-size:10px;font-variant:normal;font-weight:normal;writing-mode:lr-tb;fill:#000000;fill-opacity:1;fill-rule:nonzero;stroke:none;font-family:Helvetica;-inkscape-font-specification:Helvetica"
               x="0 5 7.7800002 13.34 16.120001"
               y="0"
               sodipodi:role="line"
               id="tspan42">state</tspan>
          </text>
        </g>
      </g>
    </g>
    <g
       transform="matrix(0,-0.125,-0.125,0,1169.2857,1055.8588)"
       id="g44">
      <g
         id="g46"
         clip-path="url(#clipPath48)">
        <g
           id="g52"
           transform="scale(10,10)">
          <text
             transform="matrix(0,-1,-1,0,278.583,210.5)"
             id="text54">
            <tspan
               style="font-size:10px;font-variant:normal;font-weight:normal;writing-mode:lr-tb;fill:#000000;fill-opacity:1;fill-rule:nonzero;stroke:none;font-family:Helvetica;-inkscape-font-specification:Helvetica"
               x="0"
               y="0"
               id="tspan56">x</tspan>
          </text>
        </g>
      </g>
    </g>
    <g
       transform="matrix(0,-0.125,-0.125,0,1169.2857,1055.8588)"
       id="g58">
      <g
         id="g60"
         clip-path="url(#clipPath62)">
        <path
           inkscape:connector-curvature="0"
           d="m 2990.83,2380 0,-600 -300,0 0,600 300,0 0,0"
           style="fill:none;stroke:#000000;stroke-width:3.75;stroke-linecap:butt;stroke-linejoin:round;stroke-miterlimit:10;stroke-opacity:1;stroke-dasharray:none"
           id="path66" />
        <path
           inkscape:connector-curvature="0"
           d="m 3540.83,1780 300,0 0,600 -300,0 0,-600 z"
           style="fill:#ffffff;fill-opacity:1;fill-rule:evenodd;stroke:none"
           id="path68" />
        <g
           id="g70"
           transform="scale(10,10)">
          <text
             transform="matrix(0,-1,-1,0,341.083,222)"
             id="text72">
            <tspan
               style="font-size:10px;font-variant:normal;font-weight:normal;writing-mode:lr-tb;fill:#000000;fill-opacity:1;fill-rule:nonzero;stroke:none;font-family:Helvetica;-inkscape-font-specification:Helvetica"
               x="0 2.22 7.7800002 16.110001 21.67"
               y="0"
               sodipodi:role="line"
               id="tspan74">jumps</tspan>
          </text>
        </g>
      </g>
    </g>
    <g
       transform="matrix(0,-0.125,-0.125,0,1169.2857,1055.8588)"
       id="g76">
      <g
         id="g78"
         clip-path="url(#clipPath80)">
        <g
           id="g84"
           transform="scale(10,10)">
          <text
             transform="matrix(0,-1,-1,0,363.583,209.5)"
             id="text86">
            <tspan
               style="font-size:10px;font-variant:normal;font-weight:normal;writing-mode:lr-tb;fill:#000000;fill-opacity:1;fill-rule:nonzero;stroke:none;font-family:Helvetica;-inkscape-font-specification:Helvetica"
               x="0"
               y="0"
               id="tspan88">j</tspan>
          </text>
        </g>
      </g>
    </g>
    <g
       transform="matrix(0,-0.125,-0.125,0,1169.2857,1055.8588)"
       id="g90">
      <g
         id="g92"
         clip-path="url(#clipPath94)">
        <path
           inkscape:connector-curvature="0"
           d="m 3840.83,2380 0,-600 -300,0 0,600 300,0 0,0"
           style="fill:none;stroke:#000000;stroke-width:3.75;stroke-linecap:butt;stroke-linejoin:round;stroke-miterlimit:10;stroke-opacity:1;stroke-dasharray:none"
           id="path98" />
        <path
           inkscape:connector-curvature="0"
           d="m 3140.83,5330 300,0 0,600 -300,0 0,-600 z"
           style="fill:#ffffff;fill-opacity:1;fill-rule:evenodd;stroke:none"
           id="path100" />
        <g
           id="g102"
           transform="scale(10,10)">
          <text
             transform="matrix(0,-1,-1,0,301.083,566)"
             id="text104">
            <tspan
               style="font-size:10px;font-variant:normal;font-weight:normal;writing-mode:lr-tb;fill:#000000;fill-opacity:1;fill-rule:nonzero;stroke:none;font-family:Helvetica;-inkscape-font-specification:Helvetica"
               x="0"
               y="0"
               id="tspan106">g</tspan>
          </text>
        </g>
      </g>
    </g>
    <g
       transform="matrix(0,-0.125,-0.125,0,1169.2857,1055.8588)"
       id="g108">
      <g
         id="g110"
         clip-path="url(#clipPath112)">
        <g
           id="g116"
           transform="scale(10,10)">
          <text
             transform="matrix(0,-1,-1,0,329.583,588.5)"
             id="text118">
            <tspan
               style="font-size:10px;font-variant:normal;font-weight:normal;writing-mode:lr-tb;fill:#000000;fill-opacity:1;fill-rule:nonzero;stroke:none;font-family:Helvetica;-inkscape-font-specification:Helvetica"
               x="0 2.78 8.3400002 11.12 16.68 20.01 25.57 28.9 34.459999 37.240002 42.799999"
               y="0"
               sodipodi:role="line"
               id="tspan120">Interpreted</tspan>
            <tspan
               style="font-size:10px;font-variant:normal;font-weight:normal;writing-mode:lr-tb;fill:#000000;fill-opacity:1;fill-rule:nonzero;stroke:none;font-family:Helvetica;-inkscape-font-specification:Helvetica"
               x="-5.5 2.8299999 9.5 15.61 21.17 27.84 34.509998 37.290001 43.400002 48.400002"
               y="12"
               sodipodi:role="line"
               id="tspan122">MATLAB Fcn</tspan>
          </text>
        </g>
      </g>
    </g>
    <g
       transform="matrix(0,-0.125,-0.125,0,1169.2857,1055.8588)"
       id="g124">
      <g
         id="g126"
         clip-path="url(#clipPath128)">
        <path
           inkscape:connector-curvature="0"
           d="m 3440.83,5930 0,-600 -300,0 0,600 300,0 0,0"
           style="fill:none;stroke:#000000;stroke-width:3.75;stroke-linecap:butt;stroke-linejoin:round;stroke-miterlimit:10;stroke-opacity:1;stroke-dasharray:none"
           id="path132" />
        <path
           inkscape:connector-curvature="0"
           d="m 4390.83,1780 300,0 0,600 -300,0 0,-600 z"
           style="fill:#ffffff;fill-opacity:1;fill-rule:evenodd;stroke:none"
           id="path134" />
        <g
           id="g136"
           transform="scale(10,10)">
          <text
             transform="matrix(0,-1,-1,0,426.083,219.5)"
             id="text138">
            <tspan
               style="font-size:10px;font-variant:normal;font-weight:normal;writing-mode:lr-tb;fill:#000000;fill-opacity:1;fill-rule:nonzero;stroke:none;font-family:Helvetica;-inkscape-font-specification:Helvetica"
               x="0 2.78 5 10.56 17.780001"
               y="0"
               sodipodi:role="line"
               id="tspan140">flows</tspan>
          </text>
        </g>
      </g>
    </g>
    <g
       transform="matrix(0,-0.125,-0.125,0,1169.2857,1055.8588)"
       id="g142">
      <g
         id="g144"
         clip-path="url(#clipPath146)">
        <g
           id="g150"
           transform="scale(10,10)">
          <text
             transform="matrix(0,-1,-1,0,448.583,209.5)"
             id="text152">
            <tspan
               style="font-size:10px;font-variant:normal;font-weight:normal;writing-mode:lr-tb;fill:#000000;fill-opacity:1;fill-rule:nonzero;stroke:none;font-family:Helvetica;-inkscape-font-specification:Helvetica"
               x="0"
               y="0"
               id="tspan154">t</tspan>
          </text>
        </g>
      </g>
    </g>
    <g
       transform="matrix(0,-0.125,-0.125,0,1169.2857,1055.8588)"
       id="g156">
      <g
         id="g158"
         clip-path="url(#clipPath160)">
        <path
           inkscape:connector-curvature="0"
           d="m 4690.83,2380 0,-600 -300,0 0,600 300,0 0,0"
           style="fill:none;stroke:#000000;stroke-width:3.75;stroke-linecap:butt;stroke-linejoin:round;stroke-miterlimit:10;stroke-opacity:1;stroke-dasharray:none"
           id="path164" />
        <path
           inkscape:connector-curvature="0"
           d="m 4440.83,5330 300,0 0,600 -300,0 0,-600 z"
           style="fill:#ffffff;fill-opacity:1;fill-rule:evenodd;stroke:none"
           id="path166" />
        <g
           id="g168"
           transform="scale(10,10)">
          <text
             transform="matrix(0,-1,-1,0,431.083,564.5)"
             id="text170">
            <tspan
               style="font-size:10px;font-variant:normal;font-weight:normal;writing-mode:lr-tb;fill:#000000;fill-opacity:1;fill-rule:nonzero;stroke:none;font-family:Helvetica;-inkscape-font-specification:Helvetica"
               x="0"
               y="0"
               id="tspan172">f</tspan>
          </text>
        </g>
      </g>
    </g>
    <g
       transform="matrix(0,-0.125,-0.125,0,1169.2857,1055.8588)"
       id="g174">
      <g
         id="g176"
         clip-path="url(#clipPath178)">
        <g
           id="g182"
           transform="scale(10,10)">
          <text
             transform="matrix(0,-1,-1,0,459.583,588.5)"
             id="text184">
            <tspan
               style="font-size:10px;font-variant:normal;font-weight:normal;writing-mode:lr-tb;fill:#000000;fill-opacity:1;fill-rule:nonzero;stroke:none;font-family:Helvetica;-inkscape-font-specification:Helvetica"
               x="0 2.78 8.3400002 11.12 16.68 20.01 25.57 28.9 34.459999 37.240002 42.799999"
               y="0"
               sodipodi:role="line"
               id="tspan186">Interpreted</tspan>
            <tspan
               style="font-size:10px;font-variant:normal;font-weight:normal;writing-mode:lr-tb;fill:#000000;fill-opacity:1;fill-rule:nonzero;stroke:none;font-family:Helvetica;-inkscape-font-specification:Helvetica"
               x="-5.5 2.8299999 9.5 15.61 21.17 27.84 34.509998 37.290001 43.400002 48.400002"
               y="12"
               sodipodi:role="line"
               id="tspan188">MATLAB Fcn</tspan>
          </text>
        </g>
      </g>
    </g>
    <g
       transform="matrix(0,-0.125,-0.125,0,1169.2857,1055.8588)"
       id="g190">
      <g
         id="g192"
         clip-path="url(#clipPath194)">
        <path
           inkscape:connector-curvature="0"
           d="m 4740.83,5930 0,-600 -300,0 0,600 300,0 0,0"
           style="fill:none;stroke:#000000;stroke-width:3.75;stroke-linecap:butt;stroke-linejoin:round;stroke-miterlimit:10;stroke-opacity:1;stroke-dasharray:none"
           id="path198" />
        <path
           inkscape:connector-curvature="0"
           d="m 1840.83,5280 300,0 0,600 -300,0 0,-600 z"
           style="fill:#ffffff;fill-opacity:1;fill-rule:evenodd;stroke:none"
           id="path200" />
        <g
           id="g202"
           transform="scale(10,10)">
          <text
             transform="matrix(0,-1,-1,0,171.083,562)"
             id="text204">
            <tspan
               style="font-size:10px;font-variant:normal;font-weight:normal;writing-mode:lr-tb;fill:#000000;fill-opacity:1;fill-rule:nonzero;stroke:none;font-family:Helvetica;-inkscape-font-specification:Helvetica"
               x="0"
               y="0"
               id="tspan206">O</tspan>
          </text>
        </g>
      </g>
    </g>
    <g
       transform="matrix(0,-0.125,-0.125,0,1169.2857,1055.8588)"
       id="g208">
      <g
         id="g210"
         clip-path="url(#clipPath212)">
        <g
           id="g216"
           transform="scale(10,10)">
          <text
             transform="matrix(0,-1,-1,0,199.583,583.5)"
             id="text218">
            <tspan
               style="font-size:10px;font-variant:normal;font-weight:normal;writing-mode:lr-tb;fill:#000000;fill-opacity:1;fill-rule:nonzero;stroke:none;font-family:Helvetica;-inkscape-font-specification:Helvetica"
               x="0 2.78 8.3400002 11.12 16.68 20.01 25.57 28.9 34.459999 37.240002 42.799999"
               y="0"
               sodipodi:role="line"
               id="tspan220">Interpreted</tspan>
            <tspan
               style="font-size:10px;font-variant:normal;font-weight:normal;writing-mode:lr-tb;fill:#000000;fill-opacity:1;fill-rule:nonzero;stroke:none;font-family:Helvetica;-inkscape-font-specification:Helvetica"
               x="-5.5 2.8299999 9.5 15.61 21.17 27.84 34.509998 37.290001 43.400002 48.400002"
               y="12"
               sodipodi:role="line"
               id="tspan222">MATLAB Fcn</tspan>
          </text>
        </g>
      </g>
    </g>
    <g
       transform="matrix(0,-0.125,-0.125,0,1169.2857,1055.8588)"
       id="g224">
      <g
         id="g226"
         clip-path="url(#clipPath228)">
        <path
           inkscape:connector-curvature="0"
           d="m 2140.83,5880 0,-600 -300,0 0,600 300,0 0,0"
           style="fill:none;stroke:#000000;stroke-width:3.75;stroke-linecap:butt;stroke-linejoin:round;stroke-miterlimit:10;stroke-opacity:1;stroke-dasharray:none"
           id="path232" />
        <path
           inkscape:connector-curvature="0"
           d="m 1610.83,3330 3360,0 0,1350 -3360,0 0,-1350 z"
           style="fill:#ffffff;fill-opacity:1;fill-rule:evenodd;stroke:none"
           id="path234" />
        <g
           id="g236"
           transform="scale(10,10)">
          <text
             transform="matrix(0,-1,-1,0,148.083,442)"
             id="text238">
            <tspan
               style="font-size:10px;font-variant:normal;font-weight:normal;writing-mode:lr-tb;fill:#000000;fill-opacity:1;fill-rule:nonzero;stroke:none;font-family:Helvetica;-inkscape-font-specification:Helvetica"
               x="0 2.78 8.3400002 11.12 16.68 22.24 25.57 31.129999 33.91 39.470001 42.799999 45.580002 52.25 57.25 62.25 65.029999 70.589996"
               y="0"
               sodipodi:role="line"
               id="tspan240">Integrator System</tspan>
          </text>
        </g>
      </g>
    </g>
    <g
       transform="matrix(0,-0.125,-0.125,0,1169.2857,1055.8588)"
       id="g242">
      <g
         id="g244"
         clip-path="url(#clipPath246)">
        <g
           id="g250"
           transform="scale(10,10)">
          <text
             transform="matrix(0,-1,-1,0,455.083,465)"
             id="text252">
            <tspan
               style="font-size:9px;font-variant:normal;font-weight:normal;writing-mode:lr-tb;fill:#000000;fill-opacity:1;fill-rule:nonzero;stroke:none;font-family:Helvetica;-inkscape-font-specification:Helvetica"
               x="0"
               y="0"
               id="tspan254">f</tspan>
            <tspan
               style="font-size:9px;font-variant:normal;font-weight:normal;writing-mode:lr-tb;fill:#000000;fill-opacity:1;fill-rule:nonzero;stroke:none;font-family:Helvetica;-inkscape-font-specification:Helvetica"
               x="0"
               y="65"
               id="tspan256">C</tspan>
            <tspan
               style="font-size:9px;font-variant:normal;font-weight:normal;writing-mode:lr-tb;fill:#000000;fill-opacity:1;fill-rule:nonzero;stroke:none;font-family:Helvetica;-inkscape-font-specification:Helvetica"
               x="0"
               y="130"
               id="tspan258">g</tspan>
            <tspan
               style="font-size:9px;font-variant:normal;font-weight:normal;writing-mode:lr-tb;fill:#000000;fill-opacity:1;fill-rule:nonzero;stroke:none;font-family:Helvetica;-inkscape-font-specification:Helvetica"
               x="0"
               y="195"
               id="tspan260">D</tspan>
            <tspan
               style="font-size:9px;font-variant:normal;font-weight:normal;writing-mode:lr-tb;fill:#000000;fill-opacity:1;fill-rule:nonzero;stroke:none;font-family:Helvetica;-inkscape-font-specification:Helvetica"
               x="0"
               y="260"
               id="tspan262">O</tspan>
            <tspan
               style="font-size:9px;font-variant:normal;font-weight:normal;writing-mode:lr-tb;fill:#000000;fill-opacity:1;fill-rule:nonzero;stroke:none;font-family:Helvetica;-inkscape-font-specification:Helvetica"
               x="126"
               y="5.5830002"
               id="tspan264">t</tspan>
            <tspan
               style="font-size:9px;font-variant:normal;font-weight:normal;writing-mode:lr-tb;fill:#000000;fill-opacity:1;fill-rule:nonzero;stroke:none;font-family:Helvetica;-inkscape-font-specification:Helvetica"
               x="127"
               y="90.583"
               id="tspan266">j</tspan>
            <tspan
               style="font-size:9px;font-variant:normal;font-weight:normal;writing-mode:lr-tb;fill:#000000;fill-opacity:1;fill-rule:nonzero;stroke:none;font-family:Helvetica;-inkscape-font-specification:Helvetica"
               x="124"
               y="175.58299"
               id="tspan268">x</tspan>
            <tspan
               style="font-size:9px;font-variant:normal;font-weight:normal;writing-mode:lr-tb;fill:#000000;fill-opacity:1;fill-rule:nonzero;stroke:none;font-family:Helvetica;-inkscape-font-specification:Helvetica"
               x="122 126.5"
               y="260.58301"
               sodipodi:role="line"
               id="tspan270">x’</tspan>
          </text>
        </g>
      </g>
    </g>
    <g
       transform="matrix(0,-0.125,-0.125,0,1169.2857,1055.8588)"
       id="g272">
      <g
         id="g274"
         clip-path="url(#clipPath276)">
        <path
           inkscape:connector-curvature="0"
           d="m 4970.83,4680 0,-1350 -3360,0 0,1350 3360,0 0,0"
           style="fill:none;stroke:#000000;stroke-width:3.75;stroke-linecap:butt;stroke-linejoin:round;stroke-miterlimit:10;stroke-opacity:1;stroke-dasharray:none"
           id="path280" />
        <path
           inkscape:connector-curvature="0"
           d="m 3140.83,4930 300,0 0,200 -300,0 0,-200 z"
           style="fill:#ffffff;fill-opacity:1;fill-rule:evenodd;stroke:none"
           id="path282" />
        <path
           inkscape:connector-curvature="0"
           d="m 3290.83,5130 0,-200"
           style="fill:none;stroke:#000000;stroke-width:3.75;stroke-linecap:butt;stroke-linejoin:round;stroke-miterlimit:10;stroke-opacity:1;stroke-dasharray:none"
           id="path284" />
        <g
           id="g286"
           transform="scale(10,10)">
          <text
             transform="matrix(0,-1,-1,0,301.083,508)"
             id="text288">
            <tspan
               style="font-size:10px;font-variant:normal;font-weight:normal;writing-mode:lr-tb;fill:#000000;fill-opacity:1;fill-rule:nonzero;stroke:none;font-family:Helvetica;-inkscape-font-specification:Helvetica"
               x="0 2.78"
               y="0"
               sodipodi:role="line"
               id="tspan290">IC</tspan>
          </text>
        </g>
      </g>
    </g>
    <g
       transform="matrix(0,-0.125,-0.125,0,1169.2857,1055.8588)"
       id="g292">
      <g
         id="g294"
         clip-path="url(#clipPath296)">
        <g
           id="g300"
           transform="scale(10,10)">
          <text
             transform="matrix(0,-1,-1,0,333.083,511.5)"
             id="text302">
            <tspan
               style="font-size:10px;font-variant:normal;font-weight:normal;writing-mode:lr-tb;fill:#000000;fill-opacity:1;fill-rule:nonzero;stroke:none;font-family:Helvetica;-inkscape-font-specification:Helvetica"
               x="0 2.78 7.7800002 13.34"
               y="0"
               sodipodi:role="line"
               id="tspan304">[x0]</tspan>
          </text>
        </g>
      </g>
    </g>
    <g
       transform="matrix(0,-0.125,-0.125,0,1169.2857,1055.8588)"
       id="g306">
      <g
         id="g308"
         clip-path="url(#clipPath310)">
        <path
           inkscape:connector-curvature="0"
           d="m 3440.83,5130 0,-200 -300,0 0,200 300,0 0,0"
           style="fill:none;stroke:#000000;stroke-width:3.75;stroke-linecap:butt;stroke-linejoin:round;stroke-miterlimit:10;stroke-opacity:1;stroke-dasharray:none"
           id="path314" />
        <path
           inkscape:connector-curvature="0"
           d="m 2490.83,5330 300,0 0,600 -300,0 0,-600 z"
           style="fill:#ffffff;fill-opacity:1;fill-rule:evenodd;stroke:none"
           id="path316" />
        <g
           id="g318"
           transform="scale(10,10)">
          <text
             transform="matrix(0,-1,-1,0,236.083,566.5)"
             id="text320">
            <tspan
               style="font-size:10px;font-variant:normal;font-weight:normal;writing-mode:lr-tb;fill:#000000;fill-opacity:1;fill-rule:nonzero;stroke:none;font-family:Helvetica;-inkscape-font-specification:Helvetica"
               x="0"
               y="0"
               id="tspan322">D</tspan>
          </text>
        </g>
      </g>
    </g>
    <g
       transform="matrix(0,-0.125,-0.125,0,1169.2857,1055.8588)"
       id="g324">
      <g
         id="g326"
         clip-path="url(#clipPath328)">
        <g
           id="g332"
           transform="scale(10,10)">
          <text
             transform="matrix(0,-1,-1,0,264.583,588.5)"
             id="text334">
            <tspan
               style="font-size:10px;font-variant:normal;font-weight:normal;writing-mode:lr-tb;fill:#000000;fill-opacity:1;fill-rule:nonzero;stroke:none;font-family:Helvetica;-inkscape-font-specification:Helvetica"
               x="0 2.78 8.3400002 11.12 16.68 20.01 25.57 28.9 34.459999 37.240002 42.799999"
               y="0"
               sodipodi:role="line"
               id="tspan336">Interpreted</tspan>
            <tspan
               style="font-size:10px;font-variant:normal;font-weight:normal;writing-mode:lr-tb;fill:#000000;fill-opacity:1;fill-rule:nonzero;stroke:none;font-family:Helvetica;-inkscape-font-specification:Helvetica"
               x="-5.5 2.8299999 9.5 15.61 21.17 27.84 34.509998 37.290001 43.400002 48.400002"
               y="12"
               sodipodi:role="line"
               id="tspan338">MATLAB Fcn</tspan>
          </text>
        </g>
      </g>
    </g>
    <g
       transform="matrix(0,-0.125,-0.125,0,1169.2857,1055.8588)"
       id="g340">
      <g
         id="g342"
         clip-path="url(#clipPath344)">
        <path
           inkscape:connector-curvature="0"
           d="m 2790.83,5930 0,-600 -300,0 0,600 300,0 0,0"
           style="fill:none;stroke:#000000;stroke-width:3.75;stroke-linecap:butt;stroke-linejoin:round;stroke-miterlimit:10;stroke-opacity:1;stroke-dasharray:none"
           id="path348" />
        <path
           inkscape:connector-curvature="0"
           d="m 3790.83,5330 300,0 0,600 -300,0 0,-600 z"
           style="fill:#ffffff;fill-opacity:1;fill-rule:evenodd;stroke:none"
           id="path350" />
        <g
           id="g352"
           transform="scale(10,10)">
          <text
             transform="matrix(0,-1,-1,0,366.083,566.5)"
             id="text354">
            <tspan
               style="font-size:10px;font-variant:normal;font-weight:normal;writing-mode:lr-tb;fill:#000000;fill-opacity:1;fill-rule:nonzero;stroke:none;font-family:Helvetica;-inkscape-font-specification:Helvetica"
               x="0"
               y="0"
               id="tspan356">C</tspan>
          </text>
        </g>
      </g>
    </g>
    <g
       transform="matrix(0,-0.125,-0.125,0,1169.2857,1055.8588)"
       id="g358">
      <g
         id="g360"
         clip-path="url(#clipPath362)">
        <g
           id="g366"
           transform="scale(10,10)">
          <text
             transform="matrix(0,-1,-1,0,394.583,588.5)"
             id="text368">
            <tspan
               style="font-size:10px;font-variant:normal;font-weight:normal;writing-mode:lr-tb;fill:#000000;fill-opacity:1;fill-rule:nonzero;stroke:none;font-family:Helvetica;-inkscape-font-specification:Helvetica"
               x="0 2.78 8.3400002 11.12 16.68 20.01 25.57 28.9 34.459999 37.240002 42.799999"
               y="0"
               sodipodi:role="line"
               id="tspan370">Interpreted</tspan>
            <tspan
               style="font-size:10px;font-variant:normal;font-weight:normal;writing-mode:lr-tb;fill:#000000;fill-opacity:1;fill-rule:nonzero;stroke:none;font-family:Helvetica;-inkscape-font-specification:Helvetica"
               x="-5.5 2.8299999 9.5 15.61 21.17 27.84 34.509998 37.290001 43.400002 48.400002"
               y="12"
               sodipodi:role="line"
               id="tspan372">MATLAB Fcn</tspan>
          </text>
        </g>
      </g>
    </g>
    <g
       transform="matrix(0,-0.125,-0.125,0,1169.2857,1055.8588)"
       id="g374">
      <g
         id="g376"
         clip-path="url(#clipPath378)">
        <path
           inkscape:connector-curvature="0"
           d="m 4090.83,5930 0,-600 -300,0 0,600 300,0 0,0"
           style="fill:none;stroke:#000000;stroke-width:3.75;stroke-linecap:butt;stroke-linejoin:round;stroke-miterlimit:10;stroke-opacity:1;stroke-dasharray:none"
           id="path382" />
        <path
           inkscape:connector-curvature="0"
           d="m 3290.83,5330 0,-50"
           style="fill:none;stroke:#000000;stroke-width:3.75;stroke-linecap:butt;stroke-linejoin:round;stroke-miterlimit:10;stroke-opacity:1;stroke-dasharray:none"
           id="path384" />
        <path
           inkscape:connector-curvature="0"
           d="m 3290.83,5180 0,100"
           style="fill:none;stroke:#000000;stroke-width:3.75;stroke-linecap:butt;stroke-linejoin:round;stroke-miterlimit:10;stroke-opacity:1;stroke-dasharray:none"
           id="path386" />
        <path
           inkscape:connector-curvature="0"
           d="m 3340.83,5230 -100,0 50,-100 50,100"
           style="fill:#000000;fill-opacity:1;fill-rule:evenodd;stroke:none"
           id="path388" />
        <path
           inkscape:connector-curvature="0"
           d="m 3290.83,5300 0,-40"
           style="fill:none;stroke:#000000;stroke-width:3.75;stroke-linecap:butt;stroke-linejoin:round;stroke-miterlimit:10;stroke-opacity:1;stroke-dasharray:none"
           id="path390" />
        <path
           inkscape:connector-curvature="0"
           d="m 2640.83,5330 0,-50"
           style="fill:none;stroke:#000000;stroke-width:3.75;stroke-linecap:butt;stroke-linejoin:round;stroke-miterlimit:10;stroke-opacity:1;stroke-dasharray:none"
           id="path392" />
        <path
           inkscape:connector-curvature="0"
           d="m 2640.83,4730 0,100"
           style="fill:none;stroke:#000000;stroke-width:3.75;stroke-linecap:butt;stroke-linejoin:round;stroke-miterlimit:10;stroke-opacity:1;stroke-dasharray:none"
           id="path394" />
        <path
           inkscape:connector-curvature="0"
           d="m 2690.83,4780 -100,0 50,-100 50,100"
           style="fill:#000000;fill-opacity:1;fill-rule:evenodd;stroke:none"
           id="path396" />
        <path
           inkscape:connector-curvature="0"
           d="m 2640.83,5300 0,-490"
           style="fill:none;stroke:#000000;stroke-width:3.75;stroke-linecap:butt;stroke-linejoin:round;stroke-miterlimit:10;stroke-opacity:1;stroke-dasharray:none"
           id="path398" />
        <path
           inkscape:connector-curvature="0"
           d="m 4590.83,5330 0,-50"
           style="fill:none;stroke:#000000;stroke-width:3.75;stroke-linecap:butt;stroke-linejoin:round;stroke-miterlimit:10;stroke-opacity:1;stroke-dasharray:none"
           id="path400" />
        <path
           inkscape:connector-curvature="0"
           d="m 4590.83,4730 0,100"
           style="fill:none;stroke:#000000;stroke-width:3.75;stroke-linecap:butt;stroke-linejoin:round;stroke-miterlimit:10;stroke-opacity:1;stroke-dasharray:none"
           id="path402" />
        <path
           inkscape:connector-curvature="0"
           d="m 4640.83,4780 -100,0 50,-100 50,100"
           style="fill:#000000;fill-opacity:1;fill-rule:evenodd;stroke:none"
           id="path404" />
        <path
           inkscape:connector-curvature="0"
           d="m 4590.83,5300 0,-490"
           style="fill:none;stroke:#000000;stroke-width:3.75;stroke-linecap:butt;stroke-linejoin:round;stroke-miterlimit:10;stroke-opacity:1;stroke-dasharray:none"
           id="path406" />
        <path
           inkscape:connector-curvature="0"
           d="m 1990.83,5930 0,100"
           style="fill:none;stroke:#000000;stroke-width:3.75;stroke-linecap:butt;stroke-linejoin:round;stroke-miterlimit:10;stroke-opacity:1;stroke-dasharray:none"
           id="path408" />
        <path
           inkscape:connector-curvature="0"
           d="m 2040.83,5980 -100,0 50,-100 50,100"
           style="fill:#000000;fill-opacity:1;fill-rule:evenodd;stroke:none"
           id="path410" />
        <path
           inkscape:connector-curvature="0"
           d="m 1990.83,6130 0,-120"
           style="fill:none;stroke:#000000;stroke-width:3.75;stroke-linecap:butt;stroke-linejoin:round;stroke-miterlimit:10;stroke-opacity:1;stroke-dasharray:none"
           id="path412" />
        <path
           inkscape:connector-curvature="0"
           d="m 3940.83,5980 0,100"
           style="fill:none;stroke:#000000;stroke-width:3.75;stroke-linecap:butt;stroke-linejoin:round;stroke-miterlimit:10;stroke-opacity:1;stroke-dasharray:none"
           id="path414" />
        <path
           inkscape:connector-curvature="0"
           d="m 3990.83,6030 -100,0 50,-100 50,100"
           style="fill:#000000;fill-opacity:1;fill-rule:evenodd;stroke:none"
           id="path416" />
        <path
           inkscape:connector-curvature="0"
           d="m 3290.83,6130 650,0 0,-70"
           style="fill:none;stroke:#000000;stroke-width:3.75;stroke-linecap:butt;stroke-linejoin:round;stroke-miterlimit:10;stroke-opacity:1;stroke-dasharray:none"
           id="path418" />
        <path
           inkscape:connector-curvature="0"
           d="m 3290.83,5980 0,100"
           style="fill:none;stroke:#000000;stroke-width:3.75;stroke-linecap:butt;stroke-linejoin:round;stroke-miterlimit:10;stroke-opacity:1;stroke-dasharray:none"
           id="path420" />
        <path
           inkscape:connector-curvature="0"
           d="m 3340.83,6030 -100,0 50,-100 50,100"
           style="fill:#000000;fill-opacity:1;fill-rule:evenodd;stroke:none"
           id="path422" />
        <path
           inkscape:connector-curvature="0"
           d="m 3290.83,6130 0,-70"
           style="fill:none;stroke:#000000;stroke-width:3.75;stroke-linecap:butt;stroke-linejoin:round;stroke-miterlimit:10;stroke-opacity:1;stroke-dasharray:none"
           id="path424" />
        <path
           inkscape:connector-curvature="0"
           d="m 2640.83,6130 650,0"
           style="fill:none;stroke:#000000;stroke-width:3.75;stroke-linecap:butt;stroke-linejoin:round;stroke-miterlimit:10;stroke-opacity:1;stroke-dasharray:none"
           id="path426" />
        <path
           inkscape:connector-curvature="0"
           d="m 3280.83,6120 20,0 0,20 -20,0 0,-20 z"
           style="fill:#000000;fill-opacity:1;fill-rule:evenodd;stroke:none"
           id="path428" />
        <path
           inkscape:connector-curvature="0"
           d="m 3300.83,6140 0,-20 -20,0 0,20 20,0 0,0"
           style="fill:none;stroke:#000000;stroke-width:3.75;stroke-linecap:butt;stroke-linejoin:round;stroke-miterlimit:10;stroke-opacity:1;stroke-dasharray:none"
           id="path430" />
        <path
           inkscape:connector-curvature="0"
           d="m 2640.83,5980 0,100"
           style="fill:none;stroke:#000000;stroke-width:3.75;stroke-linecap:butt;stroke-linejoin:round;stroke-miterlimit:10;stroke-opacity:1;stroke-dasharray:none"
           id="path432" />
        <path
           inkscape:connector-curvature="0"
           d="m 2690.83,6030 -100,0 50,-100 50,100"
           style="fill:#000000;fill-opacity:1;fill-rule:evenodd;stroke:none"
           id="path434" />
        <path
           inkscape:connector-curvature="0"
           d="m 2640.83,6130 0,-70"
           style="fill:none;stroke:#000000;stroke-width:3.75;stroke-linecap:butt;stroke-linejoin:round;stroke-miterlimit:10;stroke-opacity:1;stroke-dasharray:none"
           id="path436" />
        <path
           inkscape:connector-curvature="0"
           d="m 1990.83,6130 650,0"
           style="fill:none;stroke:#000000;stroke-width:3.75;stroke-linecap:butt;stroke-linejoin:round;stroke-miterlimit:10;stroke-opacity:1;stroke-dasharray:none"
           id="path438" />
        <path
           inkscape:connector-curvature="0"
           d="m 2630.83,6120 20,0 0,20 -20,0 0,-20 z"
           style="fill:#000000;fill-opacity:1;fill-rule:evenodd;stroke:none"
           id="path440" />
        <path
           inkscape:connector-curvature="0"
           d="m 2650.83,6140 0,-20 -20,0 0,20 20,0 0,0"
           style="fill:none;stroke:#000000;stroke-width:3.75;stroke-linecap:butt;stroke-linejoin:round;stroke-miterlimit:10;stroke-opacity:1;stroke-dasharray:none"
           id="path442" />
        <path
           inkscape:connector-curvature="0"
           d="m 1990.83,3330 0,-50"
           style="fill:none;stroke:#000000;stroke-width:3.75;stroke-linecap:butt;stroke-linejoin:round;stroke-miterlimit:10;stroke-opacity:1;stroke-dasharray:none"
           id="path444" />
        <path
           inkscape:connector-curvature="0"
           d="m 1990.83,3300 0,-470 -950,0 0,3300 950,0"
           style="fill:none;stroke:#000000;stroke-width:3.75;stroke-linecap:butt;stroke-linejoin:round;stroke-miterlimit:10;stroke-opacity:1;stroke-dasharray:none"
           id="path446" />
        <path
           inkscape:connector-curvature="0"
           d="m 1980.83,6120 20,0 0,20 -20,0 0,-20 z"
           style="fill:#000000;fill-opacity:1;fill-rule:evenodd;stroke:none"
           id="path448" />
        <path
           inkscape:connector-curvature="0"
           d="m 2000.83,6140 0,-20 -20,0 0,20 20,0 0,0"
           style="fill:none;stroke:#000000;stroke-width:3.75;stroke-linecap:butt;stroke-linejoin:round;stroke-miterlimit:10;stroke-opacity:1;stroke-dasharray:none"
           id="path450" />
        <path
           inkscape:connector-curvature="0"
           d="m 3290.83,4930 0,-50"
           style="fill:none;stroke:#000000;stroke-width:3.75;stroke-linecap:butt;stroke-linejoin:round;stroke-miterlimit:10;stroke-opacity:1;stroke-dasharray:none"
           id="path452" />
        <path
           inkscape:connector-curvature="0"
           d="m 3290.83,4730 0,100"
           style="fill:none;stroke:#000000;stroke-width:3.75;stroke-linecap:butt;stroke-linejoin:round;stroke-miterlimit:10;stroke-opacity:1;stroke-dasharray:none"
           id="path454" />
        <path
           inkscape:connector-curvature="0"
           d="m 3340.83,4780 -100,0 50,-100 50,100"
           style="fill:#000000;fill-opacity:1;fill-rule:evenodd;stroke:none"
           id="path456" />
        <path
           inkscape:connector-curvature="0"
           d="m 3290.83,4900 0,-90"
           style="fill:none;stroke:#000000;stroke-width:3.75;stroke-linecap:butt;stroke-linejoin:round;stroke-miterlimit:10;stroke-opacity:1;stroke-dasharray:none"
           id="path458" />
        <path
           inkscape:connector-curvature="0"
           d="m 4590.83,5980 0,100"
           style="fill:none;stroke:#000000;stroke-width:3.75;stroke-linecap:butt;stroke-linejoin:round;stroke-miterlimit:10;stroke-opacity:1;stroke-dasharray:none"
           id="path460" />
        <path
           inkscape:connector-curvature="0"
           d="m 4640.83,6030 -100,0 50,-100 50,100"
           style="fill:#000000;fill-opacity:1;fill-rule:evenodd;stroke:none"
           id="path462" />
        <path
           inkscape:connector-curvature="0"
           d="m 2840.83,2880 2300,0 0,3250 -550,0 0,-70"
           style="fill:none;stroke:#000000;stroke-width:3.75;stroke-linecap:butt;stroke-linejoin:round;stroke-miterlimit:10;stroke-opacity:1;stroke-dasharray:none"
           id="path464" />
        <path
           inkscape:connector-curvature="0"
           d="m 2840.83,2430 0,100"
           style="fill:none;stroke:#000000;stroke-width:3.75;stroke-linecap:butt;stroke-linejoin:round;stroke-miterlimit:10;stroke-opacity:1;stroke-dasharray:none"
           id="path466" />
        <path
           inkscape:connector-curvature="0"
           d="m 2890.83,2480 -100,0 50,-100 50,100"
           style="fill:#000000;fill-opacity:1;fill-rule:evenodd;stroke:none"
           id="path468" />
        <path
           inkscape:connector-curvature="0"
           d="m 2840.83,2880 0,-370"
           style="fill:none;stroke:#000000;stroke-width:3.75;stroke-linecap:butt;stroke-linejoin:round;stroke-miterlimit:10;stroke-opacity:1;stroke-dasharray:none"
           id="path470" />
        <path
           inkscape:connector-curvature="0"
           d="m 2840.83,3330 0,-50"
           style="fill:none;stroke:#000000;stroke-width:3.75;stroke-linecap:butt;stroke-linejoin:round;stroke-miterlimit:10;stroke-opacity:1;stroke-dasharray:none"
           id="path472" />
        <path
           inkscape:connector-curvature="0"
           d="m 2840.83,3300 0,-420"
           style="fill:none;stroke:#000000;stroke-width:3.75;stroke-linecap:butt;stroke-linejoin:round;stroke-miterlimit:10;stroke-opacity:1;stroke-dasharray:none"
           id="path474" />
        <path
           inkscape:connector-curvature="0"
           d="m 2830.83,2870 20,0 0,20 -20,0 0,-20 z"
           style="fill:#000000;fill-opacity:1;fill-rule:evenodd;stroke:none"
           id="path476" />
        <path
           inkscape:connector-curvature="0"
           d="m 2850.83,2890 0,-20 -20,0 0,20 20,0 0,0"
           style="fill:none;stroke:#000000;stroke-width:3.75;stroke-linecap:butt;stroke-linejoin:round;stroke-miterlimit:10;stroke-opacity:1;stroke-dasharray:none"
           id="path478" />
        <path
           inkscape:connector-curvature="0"
           d="m 3940.83,5330 0,-50"
           style="fill:none;stroke:#000000;stroke-width:3.75;stroke-linecap:butt;stroke-linejoin:round;stroke-miterlimit:10;stroke-opacity:1;stroke-dasharray:none"
           id="path480" />
        <path
           inkscape:connector-curvature="0"
           d="m 3940.83,4730 0,100"
           style="fill:none;stroke:#000000;stroke-width:3.75;stroke-linecap:butt;stroke-linejoin:round;stroke-miterlimit:10;stroke-opacity:1;stroke-dasharray:none"
           id="path482" />
        <path
           inkscape:connector-curvature="0"
           d="m 3990.83,4780 -100,0 50,-100 50,100"
           style="fill:#000000;fill-opacity:1;fill-rule:evenodd;stroke:none"
           id="path484" />
        <path
           inkscape:connector-curvature="0"
           d="m 3940.83,5300 0,-490"
           style="fill:none;stroke:#000000;stroke-width:3.75;stroke-linecap:butt;stroke-linejoin:round;stroke-miterlimit:10;stroke-opacity:1;stroke-dasharray:none"
           id="path486" />
        <path
           inkscape:connector-curvature="0"
           d="m 4540.83,3330 0,-50"
           style="fill:none;stroke:#000000;stroke-width:3.75;stroke-linecap:butt;stroke-linejoin:round;stroke-miterlimit:10;stroke-opacity:1;stroke-dasharray:none"
           id="path488" />
        <path
           inkscape:connector-curvature="0"
           d="m 4540.83,2430 0,100"
           style="fill:none;stroke:#000000;stroke-width:3.75;stroke-linecap:butt;stroke-linejoin:round;stroke-miterlimit:10;stroke-opacity:1;stroke-dasharray:none"
           id="path490" />
        <path
           inkscape:connector-curvature="0"
           d="m 4590.83,2480 -100,0 50,-100 50,100"
           style="fill:#000000;fill-opacity:1;fill-rule:evenodd;stroke:none"
           id="path492" />
        <path
           inkscape:connector-curvature="0"
           d="m 4540.83,3300 0,-790"
           style="fill:none;stroke:#000000;stroke-width:3.75;stroke-linecap:butt;stroke-linejoin:round;stroke-miterlimit:10;stroke-opacity:1;stroke-dasharray:none"
           id="path494" />
        <path
           inkscape:connector-curvature="0"
           d="m 3690.83,3330 0,-50"
           style="fill:none;stroke:#000000;stroke-width:3.75;stroke-linecap:butt;stroke-linejoin:round;stroke-miterlimit:10;stroke-opacity:1;stroke-dasharray:none"
           id="path496" />
        <path
           inkscape:connector-curvature="0"
           d="m 3690.83,2430 0,100"
           style="fill:none;stroke:#000000;stroke-width:3.75;stroke-linecap:butt;stroke-linejoin:round;stroke-miterlimit:10;stroke-opacity:1;stroke-dasharray:none"
           id="path498" />
        <path
           inkscape:connector-curvature="0"
           d="m 3740.83,2480 -100,0 50,-100 50,100"
           style="fill:#000000;fill-opacity:1;fill-rule:evenodd;stroke:none"
           id="path500" />
        <path
           inkscape:connector-curvature="0"
           d="m 3690.83,3300 0,-790"
           style="fill:none;stroke:#000000;stroke-width:3.75;stroke-linecap:butt;stroke-linejoin:round;stroke-miterlimit:10;stroke-opacity:1;stroke-dasharray:none"
           id="path502" />
        <path
           inkscape:connector-curvature="0"
           d="m 1990.83,5280 0,-50"
           style="fill:none;stroke:#000000;stroke-width:3.75;stroke-linecap:butt;stroke-linejoin:round;stroke-miterlimit:10;stroke-opacity:1;stroke-dasharray:none"
           id="path504" />
        <path
           inkscape:connector-curvature="0"
           d="m 1990.83,4730 0,100"
           style="fill:none;stroke:#000000;stroke-width:3.75;stroke-linecap:butt;stroke-linejoin:round;stroke-miterlimit:10;stroke-opacity:1;stroke-dasharray:none"
           id="path506" />
        <path
           inkscape:connector-curvature="0"
           d="m 2040.83,4780 -100,0 50,-100 50,100"
           style="fill:#000000;fill-opacity:1;fill-rule:evenodd;stroke:none"
           id="path508" />
        <path
           inkscape:connector-curvature="0"
           d="m 1990.83,5250 0,-440"
           style="fill:none;stroke:#000000;stroke-width:3.75;stroke-linecap:butt;stroke-linejoin:round;stroke-miterlimit:10;stroke-opacity:1;stroke-dasharray:none"
           id="path510" />
      </g>
    </g>
  </g>
</svg>
